<svg xmlns="http://www.w3.org/2000/svg" width="54" height="54" viewBox="0 0 54 54"><defs><style>.a{fill:#fff;}.b{fill:#167ee6;}.c{fill:#12b347;}.d{fill:#0f993e;}.e{fill:#ffd500;}.f{fill:#ff4b26;}.g{fill:#d93f21;}</style></defs><g transform="translate(-811 -843)"><circle class="a" cx="27" cy="27" r="27" transform="translate(811 843)"/><g transform="translate(824 856)"><path class="b" d="M279.37,211.48H268.037a.906.906,0,0,0-.906.906v3.62a.906.906,0,0,0,.906.906h6.382a8.52,8.52,0,0,1-3.667,4.3l2.721,4.711a13.622,13.622,0,0,0,6.946-11.913,9.182,9.182,0,0,0-.156-1.779A.91.91,0,0,0,279.37,211.48Z" transform="translate(-252.634 -200.002)"/><path class="c" d="M46.436,338.079a8.455,8.455,0,0,1-7.314-4.232l-4.711,2.715a13.882,13.882,0,0,0,18.972,5.092v-.006l-2.721-4.711A8.393,8.393,0,0,1,46.436,338.079Z" transform="translate(-32.544 -315.73)"/><path class="d" d="M262.946,395.5v-.006l-2.721-4.711A8.394,8.394,0,0,1,256,391.921v5.436A13.869,13.869,0,0,0,262.946,395.5Z" transform="translate(-242.107 -369.572)"/><path class="e" d="M5.436,135.059a8.393,8.393,0,0,1,1.142-4.225l-4.711-2.715a13.829,13.829,0,0,0,0,13.88l4.711-2.715A8.394,8.394,0,0,1,5.436,135.059Z" transform="translate(0 -121.166)"/><path class="f" d="M46.436,5.436a8.417,8.417,0,0,1,5.369,1.928.9.9,0,0,0,1.215-.055l2.565-2.565a.913.913,0,0,0-.052-1.335A13.862,13.862,0,0,0,34.411,6.953l4.711,2.715A8.455,8.455,0,0,1,46.436,5.436Z" transform="translate(-32.544)"/><path class="g" d="M261.369,7.364a.9.9,0,0,0,1.215-.055l2.565-2.565a.913.913,0,0,0-.052-1.335A13.851,13.851,0,0,0,256,0V5.436A8.418,8.418,0,0,1,261.369,7.364Z" transform="translate(-242.107)"/></g></g></svg>