<svg xmlns="http://www.w3.org/2000/svg" width="23.257" height="23.257" viewBox="0 0 23.257 23.257"><defs><style>.a{fill:none;stroke:#20b0b3;stroke-linecap:round;stroke-linejoin:round;stroke-width:2px;}</style></defs><g transform="translate(-0.086 -0.086)"><path class="a" d="M17.23,18.944a9.351,9.351,0,0,1-5.516,1.913c-6.5,0-10.214-7.428-10.214-7.428A17.132,17.132,0,0,1,6.2,7.913m3.566-1.69A8.468,8.468,0,0,1,11.714,6c6.5,0,10.214,7.428,10.214,7.428a17.178,17.178,0,0,1-2.006,2.962m-6.24-.994A2.786,2.786,0,1,1,9.746,11.46" transform="translate(0 -1.714)"/><path class="a" d="M1.5,1.5,21.928,21.928"/></g></svg>