<svg xmlns="http://www.w3.org/2000/svg" width="54" height="54" viewBox="0 0 54 54"><defs><style>.a{fill:#00b1fd;}.b{fill:#fff;}</style></defs><g transform="translate(-1056 -843)"><circle class="a" cx="27" cy="27" r="27" transform="translate(1056 843)"/><path class="b" d="M25.122,8.872c.018.241.018.482.018.723A15.952,15.952,0,0,1,8.812,25.414,16.6,16.6,0,0,1,0,22.918a12.25,12.25,0,0,0,1.386.069A11.73,11.73,0,0,0,8.51,20.611a5.729,5.729,0,0,1-5.366-3.856,7.464,7.464,0,0,0,1.084.086,6.253,6.253,0,0,0,1.51-.189,5.608,5.608,0,0,1-4.6-5.457v-.069a5.92,5.92,0,0,0,2.594.706A5.513,5.513,0,0,1,1.173,7.2,5.388,5.388,0,0,1,1.954,4.4a16.491,16.491,0,0,0,11.833,5.818,6.089,6.089,0,0,1-.142-1.274,5.649,5.649,0,0,1,5.739-5.56,5.812,5.812,0,0,1,4.193,1.756,11.522,11.522,0,0,0,3.642-1.343A5.58,5.58,0,0,1,24.7,6.858,11.8,11.8,0,0,0,28,6a12.134,12.134,0,0,1-2.878,2.875Z" transform="translate(1069 855.619)"/></g></svg>