<svg xmlns="http://www.w3.org/2000/svg" xmlns:xlink="http://www.w3.org/1999/xlink" width="54" height="54" viewBox="0 0 54 54"><defs><style>.a{fill:url(#a);}.b{fill:#fff;}</style><linearGradient id="a" x1="0.923" y1="0.065" x2="0.073" y2="0.959" gradientUnits="objectBoundingBox"><stop offset="0" stop-color="#f9d776"/><stop offset="0.218" stop-color="#ef5232"/><stop offset="0.606" stop-color="#b30f88"/><stop offset="1" stop-color="#582ad4"/></linearGradient></defs><g transform="translate(-974 -843)"><rect class="a" width="54" height="54" rx="27" transform="translate(974 843)"/><path class="b" d="M11.873,8.022A6.088,6.088,0,1,0,17.96,14.11,6.078,6.078,0,0,0,11.873,8.022Zm0,10.046A3.958,3.958,0,1,1,15.83,14.11,3.965,3.965,0,0,1,11.873,18.068ZM19.629,7.773a1.42,1.42,0,1,1-1.42-1.42A1.417,1.417,0,0,1,19.629,7.773Zm4.032,1.441a7.027,7.027,0,0,0-1.918-4.975,7.073,7.073,0,0,0-4.975-1.918c-1.96-.111-7.836-.111-9.8,0A7.063,7.063,0,0,0,2,4.234,7.05,7.05,0,0,0,.078,9.209c-.111,1.96-.111,7.836,0,9.8A7.027,7.027,0,0,0,2,23.981,7.082,7.082,0,0,0,6.971,25.9c1.96.111,7.836.111,9.8,0a7.027,7.027,0,0,0,4.975-1.918,7.073,7.073,0,0,0,1.918-4.975c.111-1.96.111-7.831,0-9.792Zm-2.533,11.9a4.007,4.007,0,0,1-2.257,2.257c-1.563.62-5.272.477-7,.477s-5.442.138-7-.477a4.007,4.007,0,0,1-2.257-2.257c-.62-1.563-.477-5.272-.477-7s-.138-5.442.477-7A4.007,4.007,0,0,1,4.873,4.854c1.563-.62,5.272-.477,7-.477s5.442-.138,7,.477a4.007,4.007,0,0,1,2.257,2.257c.62,1.563.477,5.272.477,7S21.749,19.552,21.129,21.109Z" transform="translate(989.005 855.762)"/></g></svg>